# xmcd
#
# Track frame offsets:
#	150
#	12647
#	24037
#	36420
#	51662
#	61312
#	76520
#	88335
#	100872
#	113152
#
# Disc length: 1753 seconds
#
# Revision: 2
# Processed by: cddbd v1.5.2PL0 Copyright (c) Steve Scherf et al.
# Submitted via: audiograbber 1.83.01
#
DISCID=7a06d70a
DTITLE=Various Artist - Soul Sisters
DYEAR=2000
DGENRE=Soul
TTITLE0=Etta James - Something's Got A Hold On Me
TTITLE1=Ike and Tina Turner - I Know You Don't Love Me No More
TTITLE2=Mary Wells - My Guy
TTITLE3=Freda Payne - Bring The Boys Home
TTITLE4=Betty Everett - It's In His Kiss
TTITLE5=Martha Reeves - I Heard It Through The Grapevine
TTITLE6=The Shirelles - Will You Still Love Me Tomorrow
TTITLE7=Fontella Bass - Rescue Me
TTITLE8=Gladys Knight and The Pips - Come See About Me
TTITLE9=Gloria Gaynor - Reach Out, I'll Be There
EXTD=
EXTT0=
EXTT1=
EXTT2=
EXTT3=
EXTT4=
EXTT5=
EXTT6=
EXTT7=
EXTT8=
EXTT9=
PLAYORDER=
